<svg width="440" height="280" viewBox="0 0 440 280" xmlns="http://www.w3.org/2000/svg">
  <defs>
    <linearGradient id="bg" x1="0" y1="0" x2="1" y2="1">
      <stop stop-color="#ff9e2c" offset="0"/>
      <stop stop-color="#ff6a00" offset="1"/>
    </linearGradient>
    <linearGradient id="accent" x1="0" y1="0" x2="0" y2="1">
      <stop stop-color="#ffb347" offset="0"/>
      <stop stop-color="#ff7a00" offset="1"/>
    </linearGradient>
    <filter id="shadow" x="-20%" y="-20%" width="140%" height="140%">
      <feDropShadow dx="0" dy="14" stdDeviation="18" flood-color="#003366" flood-opacity="0.35"/>
    </filter>
  </defs>
  <rect width="440" height="280" rx="22" fill="url(#bg)"/>
  <g filter="url(#shadow)" transform="translate(40 34)">
    <rect x="0" y="0" width="360" height="212" rx="18" fill="#2b1a10" opacity="0.82"/>
    <rect x="24" y="28" width="100" height="10" rx="5" fill="#ffd8a1"/>
    <rect x="24" y="50" width="160" height="10" rx="5" fill="#ffc36d" opacity="0.7"/>
    <rect x="24" y="72" width="190" height="10" rx="5" fill="#ffb347" opacity="0.5"/>
    <g transform="translate(210 40)">
      <circle cx="60" cy="56" r="52" fill="#3c2314"/>
      <circle cx="60" cy="56" r="44" fill="#20130a" stroke="#ffb347" stroke-width="4"/>
      <path d="M60 24v32h28" fill="none" stroke="#ffd166" stroke-width="6" stroke-linecap="round" stroke-linejoin="round"/>
      <circle cx="60" cy="56" r="6" fill="url(#accent)"/>
    </g>
    <rect x="24" y="122" width="150" height="16" rx="8" fill="#ffb347" opacity="0.9"/>
    <rect x="24" y="150" width="120" height="12" rx="6" fill="#ff9e2c" opacity="0.8"/>
    <rect x="24" y="172" width="190" height="12" rx="6" fill="#ff9e2c" opacity="0.6"/>
  </g>
  <rect x="28" y="26" width="270" height="70" rx="14" fill="#1c0f05" opacity="0.62"/>
  <text x="40" y="58" font-family="Inter, 'Helvetica Neue', Arial, sans-serif" font-weight="800" font-size="24" fill="#fffaf3">时间戳助手 · Timestamp Helper</text>
  <text x="40" y="86" font-family="Inter, 'Helvetica Neue', Arial, sans-serif" font-weight="600" font-size="15" fill="#ffe7cc">一键复制 / 转换时间戳 · Multi time-zone</text>
</svg>
